#!OML:ASF I:\Random Stuff\random\construction\7_22_03\Session 2\subj1.ASF
:FULLY-SPECIFIED
:DEGREES
3360
root 11.0816 17.4801 -4.27469 -204.714 -262.434 488.452
lowerback 29.1822 1.26038 -1.43011
upperback 7.31527 1.68146 -0.824642
thorax -7.85715 1.0388 -0.711369
lowerneck -26.6638 3.60598 2.36207
upperneck 31.0492 5.60949 -2.64254
head 15.5695 2.30838 -0.32771
rclavicle 1.51076e-014 1.78906e-014
rhumerus 29.4312 50.2503 -74.4734
rradius 51.8128
rwrist 6.55799
rhand -14.9823 11.9914
rfingers 7.12502
rthumb 11.1818 -17.6906
lclavicle 1.51076e-014 1.78906e-014
lhumerus 11.9698 -12.8794 74.6499
lradius 68.3828
lwrist 47.2086
lhand -11.0904 61.2299
lfingers 7.12502
lthumb 14.9334 989.328
rfemur -42.7423 -10.231 28.2719
rtibia 30.6138
rfoot -11.0538 -7.33587
rtoes -23.3698
lfemur -51.4203 9.46791 -18.6787
ltibia 38.2513
lfoot -11.6631 9.61859
ltoes -24.782
3361
root 11.0874 17.4802 -4.2783 -204.544 -262.392 488.615
lowerback 29.254 1.25837 -1.57947
upperback 7.35762 1.62919 -0.941908
thorax -7.84318 1.01801 -0.739256
lowerneck -26.5187 3.77331 2.69975
upperneck 30.9067 5.85537 -3.07124
head 15.5115 2.38921 -0.516885
rclavicle -2.78299e-014 1.63003e-014
rhumerus 28.9265 50.309 -74.3688
rradius 52.1465
rwrist 6.58566
rhand -14.4571 11.9018
rfingers 7.12502
rthumb 11.6883 -17.7522
lclavicle -2.78299e-014 1.63003e-014
lhumerus 11.8526 -13.0537 73.7751
lradius 68.0542
lwrist 46.0063
lhand -11.8872 61.9827
lfingers 7.12502
lthumb 14.1657 988.52
rfemur -42.7327 -10.2684 28.2841
rtibia 30.5982
rfoot -10.966 -7.22002
rtoes -23.4016
lfemur -51.3974 9.53672 -18.7133
ltibia 38.235
lfoot -11.7345 9.59011
ltoes -24.548
3362
root 11.0952 17.4808 -4.28319 -204.444 -262.302 488.717
lowerback 29.3134 1.27285 -1.72567
upperback 7.41091 1.60091 -1.0444
thorax -7.81122 1.00855 -0.760221
lowerneck -26.3932 3.89416 2.86173
upperneck 30.7853 6.03288 -3.28479
head 15.4503 2.45258 -0.599253
rclavicle -9.54166e-015 8.34896e-015
rhumerus 28.2915 50.225 -74.2684
rradius 52.5945
rwrist 6.44352
rhand -13.5607 12.3928
rfingers 7.12502
rthumb 12.5526 -17.2101
lclavicle -9.54166e-015 8.34896e-015
lhumerus 11.7694 -13.2107 72.9835
lradius 67.4879
lwrist 44.7226
lhand -12.5054 62.0275
lfingers 7.12502
lthumb 13.57 988.435
rfemur -42.7269 -10.3432 28.3504
rtibia 30.5995
rfoot -10.9449 -6.99067
rtoes -23.3721
lfemur -51.3507 9.63601 -18.709
ltibia 38.2098
lfoot -11.7671 9.584
ltoes -24.2608
3363
root 11.1011 17.4822 -4.28854 -204.41 -262.227 488.701
lowerback 29.3316 1.29588 -1.86459
upperback 7.45782 1.58571 -1.14409
thorax -7.76648 1.00471 -0.785749
lowerneck -26.377 3.96112 2.84532
upperneck 30.7647 6.11947 -3.23736
head 15.4378 2.49319 -0.558806
rclavicle -5.1684e-014 -5.56597e-015
rhumerus 27.6209 50.0399 -74.019
rradius 53.2291
rwrist 6.13712
rhand -12.1594 12.7747
rfingers 7.12502
rthumb 13.9034 -16.7405
lclavicle -5.1684e-014 -5.56597e-015
lhumerus 11.7935 -13.4314 72.2791
lradius 66.6763
lwrist 43.8987
lhand -13.0943 61.2628
lfingers 7.12502
lthumb 13.0023 989.162
rfemur -42.8507 -10.4834 28.4673
rtibia 30.6966
rfoot -10.8404 -6.72734
rtoes -24.0883
lfemur -51.4013 9.70631 -18.6996
ltibia 38.2476
lfoot -11.8036 9.58889
ltoes -24.1545
3364
root 11.1051 17.4821 -4.29543 -204.337 -262.182 488.713
lowerback 29.3577 1.31223 -1.99479
upperback 7.49672 1.56255 -1.25965
thorax -7.73391 0.99697 -0.831683
lowerneck -26.3641 4.04397 2.96888
upperneck 30.7951 6.2273 -3.33562
head 15.4631 2.53757 -0.598523
rclavicle 2.46493e-014 1.31198e-014
rhumerus 26.9852 49.7733 -73.5976
rradius 53.9786
rwrist 6.15974
rhand -10.1417 12.6607
rfingers 7.12502
rthumb 15.8472 -16.7108
lclavicle 2.46493e-014 1.31198e-014
lhumerus 11.8885 -13.6355 71.6685
lradius 65.7778
lwrist 43.7398
lhand -13.6819 60.5279
lfingers 7.12502
lthumb 12.4358 989.862
rfemur -43.0049 -10.6569 28.5643
rtibia 30.8106
rfoot -10.6995 -6.42752
rtoes -24.293
lfemur -51.4815 9.72443 -18.7034
ltibia 38.2863
lfoot -11.7775 9.66238
ltoes -24.4797
3365
root 11.1083 17.4798 -4.30289 -204.442 -262.141 488.589
lowerback 29.4282 1.29958 -2.12733
upperback 7.56796 1.50628 -1.36481
thorax -7.68618 0.974998 -0.853752
lowerneck -26.3401 4.15779 3.11108
upperneck 30.7587 6.3814 -3.47869
head 15.4603 2.59675 -0.650924
rclavicle 3.33958e-014 2.90226e-014
rhumerus 26.5634 49.6025 -72.8289
rradius 54.6775
rwrist 6.67368
rhand -7.72466 12.6153
rfingers 7.12502
rthumb 18.1738 -16.5557
lclavicle 3.33958e-014 2.90226e-014
lhumerus 11.9565 -13.645 71.2286
lradius 64.8746
lwrist 44.0186
lhand -14.4103 60.5469
lfingers 7.12502
lthumb 11.7334 989.802
rfemur -43.1058 -10.814 28.6409
rtibia 30.9421
rfoot -10.626 -6.14616
rtoes -24.0159
lfemur -51.5192 9.73989 -18.6886
ltibia 38.3306
lfoot -11.767 9.73024
ltoes -24.6569
3366
root 11.1113 17.4776 -4.31039 -204.771 -262.131 488.234
lowerback 29.4847 1.20569 -2.36452
upperback 7.65492 1.32579 -1.40785
thorax -7.61656 0.895876 -0.701997
lowerneck -26.2747 4.3245 3.08598
upperneck 30.6041 6.64547 -3.54375
head 15.3879 2.69364 -0.620405
rclavicle 4.77083e-015 8.74653e-015
rhumerus 26.3985 49.7864 -71.6497
rradius 55.2637
rwrist 7.36712
rhand -5.28673 13.124
rfingers 7.12502
rthumb 20.5179 -15.8118
lclavicle 4.77083e-015 8.74653e-015
lhumerus 11.8927 -12.6685 71.1686
lradius 64.1471
lwrist 43.3318
lhand -13.7821 61.6327
lfingers 7.12502
lthumb 12.3392 988.751
rfemur -43.2395 -11.0174 28.7484
rtibia 31.0829
rfoot -10.5847 -5.91112
rtoes -24.3852
lfemur -51.5779 9.73712 -18.6853
ltibia 38.3882
lfoot -11.7875 9.74529
ltoes -24.7208
3367
root 11.1154 17.4766 -4.31932 -205.104 -262.109 487.822
lowerback 29.4897 1.07161 -2.64973
upperback 7.72904 1.08316 -1.42116
thorax -7.53581 0.78666 -0.466641
lowerneck -26.1924 4.54256 2.99419
upperneck 30.431 7.01414 -3.61445
head 15.3055 2.82562 -0.559856
rclavicle 2.62396e-014 -1.11319e-014
rhumerus 26.4258 50.2622 -70.0965
rradius 55.7133
rwrist 7.90007
rhand -3.57169 13.9798
rfingers 7.12502
rthumb 22.1652 -14.7695
lclavicle 2.62396e-014 -1.11319e-014
lhumerus 11.6965 -11.476 71.2953
lradius 63.429
lwrist 44.176
lhand -15.9106 61.1773
lfingers 7.12502
lthumb 10.2864 989.094
rfemur -43.4472 -11.3041 28.9344
rtibia 31.2196
rfoot -10.5778 -5.60336
rtoes -24.7124
lfemur -51.6901 9.6988 -18.6627
ltibia 38.4608
lfoot -11.8234 9.77308
ltoes -24.7229
3368
root 11.1194 17.4749 -4.3313 -205.339 -262.039 487.458
lowerback 29.4414 0.98286 -2.78416
upperback 7.79816 0.933118 -1.52595
thorax -7.43159 0.718915 -0.451715
lowerneck -26.166 4.70174 3.01793
upperneck 30.2861 7.22191 -3.62177
head 15.2432 2.91337 -0.524922
rclavicle -2.38542e-014 -1.59028e-015
rhumerus 26.522 50.6163 -68.3141
rradius 56.0617
rwrist 8.00189
rhand -2.74367 14.8057
rfingers 7.12502
rthumb 22.96 -13.8471
lclavicle -2.38542e-014 -1.59028e-015
lhumerus 11.7811 -10.2204 71.4928
lradius 62.6769
lwrist 44.5032
lhand -16.4255 61.3824
lfingers 7.12502
lthumb 9.78961 988.865
rfemur -43.6992 -11.5819 29.1508
rtibia 31.3523
rfoot -10.5536 -5.19663
rtoes -24.4157
lfemur -51.8627 9.6975 -18.6289
ltibia 38.5387
lfoot -11.8732 9.78641
ltoes -24.5838
3369
root 11.1208 17.4747 -4.34514 -205.938 -261.959 486.721
lowerback 29.4404 0.900475 -2.79268
upperback 7.84649 0.820276 -1.67055
thorax -7.37267 0.667749 -0.568335
lowerneck -26.1111 4.80686 3.0924
upperneck 30.131 7.30043 -3.55334
head 15.1626 2.966 -0.49467
rclavicle 2.3059e-014 6.36111e-015
rhumerus 26.6274 50.9089 -66.4076
rradius 56.4239
rwrist 7.68091
rhand -2.10771 15.4891
rfingers 7.12502
rthumb 23.5701 -13.0865
lclavicle 2.3059e-014 6.36111e-015
lhumerus 12.1132 -8.82578 71.7013
lradius 61.7866
lwrist 42.9529
lhand -13.7223 62.563
lfingers 7.12502
lthumb 12.3969 987.825
rfemur -43.9533 -11.8546 29.4042
rtibia 31.4787
rfoot -10.5299 -4.73643
rtoes -23.9261
lfemur -52.0562 9.70022 -18.5509
ltibia 38.6091
lfoot -11.9014 9.79451
ltoes -24.5792
